<svg width="32" height="32" viewBox="0 0 32 32" fill="none" xmlns="http://www.w3.org/2000/svg">
    <path d="M29.2458 7.75497C29.9124 7.08795 30.7991 5.6472 31.3658 4.31984C31.9124 3.0325 32.3858 1.32495 31.5324 0.471167C29.9458 -1.11633 25.2791 1.73183 24.2458 2.7657L20.9191 6.29422L18.3724 5.74726L18.9191 5.19363C19.1924 4.92015 19.3391 4.55997 19.3391 4.1731C19.3391 3.78623 19.1924 3.42604 18.9191 3.15256L18.5391 2.77238C17.9791 2.21209 17.0658 2.21209 16.5057 2.77238L14.3924 4.88681L11.8924 4.34653L12.5257 3.71285C13.0857 3.15256 13.0857 2.23876 12.5257 1.67846L12.1457 1.29826C11.5857 0.737967 10.6724 0.737967 10.1124 1.29826L7.91908 3.49275L5.25907 2.9191C4.71241 2.79904 4.13907 2.8791 3.64574 3.1259L1.80574 4.05304C1.2924 4.31317 0.985735 4.82677 0.999069 5.4004C1.0124 5.97404 1.34573 6.47431 1.8724 6.70109L15.0524 12.5175L8.30574 19.6746C8.20574 19.7813 8.07241 19.8413 7.92574 19.828L4.89907 19.6946C4.04574 19.6746 3.19907 19.8947 2.4724 20.3482L0.832402 21.3688C0.519068 21.5622 0.345735 21.9157 0.379068 22.2826C0.412401 22.6494 0.645734 22.9629 0.992401 23.103L6.15907 25.1574L4.6524 26.6649C4.46574 26.8516 4.46574 27.1651 4.6524 27.3519C4.74574 27.4453 4.87241 27.492 4.99241 27.492C5.11907 27.492 5.23907 27.4453 5.33241 27.3519L6.83907 25.8444L8.89241 31.0138C9.03241 31.3607 9.34574 31.5941 9.71241 31.6208C9.74574 31.6208 9.77241 31.6275 9.79908 31.6275C10.1324 31.6275 10.4457 31.4607 10.6257 31.1672L11.6457 29.5264C12.0991 28.7993 12.3257 27.9589 12.2991 27.0918L12.1724 24.0702C12.1657 23.9234 12.2258 23.79 12.3258 23.69L19.4791 16.9398L25.2924 30.1267C25.5258 30.6536 26.0258 30.9871 26.5924 31.0005C26.6058 31.0005 26.6191 31.0005 26.6324 31.0005C27.1858 31.0005 27.6858 30.6936 27.9391 30.1934L28.8658 28.3524C29.1191 27.8522 29.1924 27.2785 29.0724 26.7382L28.4991 24.0768L30.6924 21.8824C31.2524 21.3221 31.2524 20.4083 30.6924 19.848L30.3124 19.4678C29.7524 18.9075 28.8391 18.9075 28.2791 19.4678L27.6458 20.1014L27.1058 17.6001L29.2191 15.4857C29.7791 14.9254 29.7791 14.0116 29.2191 13.4513L28.8391 13.0711C28.2791 12.5108 27.3658 12.5108 26.8058 13.0711L26.2591 13.618L25.7124 11.07L29.2458 7.75497ZM17.1858 3.47274C17.2791 3.37936 17.3991 3.33267 17.5191 3.33267C17.6391 3.33267 17.7591 3.37936 17.8524 3.47274L18.2324 3.85294C18.3191 3.93965 18.3658 4.05972 18.3658 4.18645C18.3658 4.31318 18.3191 4.43325 18.2324 4.51996L17.2391 5.5138L15.5191 5.14028L17.1858 3.47274ZM10.7924 1.99864C10.8857 1.90526 11.0057 1.85855 11.1257 1.85855C11.2457 1.85855 11.3657 1.90526 11.4591 1.99864L11.8391 2.37882C12.0191 2.56559 12.0191 2.85907 11.8391 3.04584L10.7657 4.11974L9.04574 3.74622L10.7924 1.99864ZM2.25907 5.8273C2.07907 5.74726 1.9724 5.5805 1.96573 5.38707C1.95907 5.19363 2.05907 5.02022 2.23907 4.9335L4.07907 4.00634C4.37907 3.85293 4.72574 3.81291 5.05241 3.87961L20.1524 7.12799L17.4258 10.0228L7.81241 5.8273C7.56574 5.72058 7.27907 5.83398 7.17241 6.08077C7.06574 6.32757 7.17908 6.61438 7.42574 6.7211L16.7191 10.7766L15.7657 11.7904L2.25907 5.8273ZM11.6591 23.0163C11.3524 23.3098 11.1857 23.7167 11.1991 24.1435L11.3258 27.1651C11.3458 27.8321 11.1724 28.4792 10.8191 29.0461L9.78574 30.6803L7.57241 25.1241L9.47908 23.2164C9.66575 23.0296 9.66575 22.7228 9.47908 22.5294C9.29241 22.3426 8.98575 22.3426 8.79241 22.5294L6.88574 24.437L1.3324 22.2159L2.9724 21.1954C3.50574 20.8618 4.11907 20.6884 4.74574 20.6884C4.77907 20.6884 4.81241 20.6884 4.85241 20.6884L7.87907 20.8151C8.30574 20.8418 8.71241 20.6684 9.00574 20.3549L24.9391 3.44605C26.0991 2.29211 30.0191 0.337763 30.8458 1.15819C31.1191 1.43167 31.1658 2.30547 30.4724 3.93966C29.8858 5.31371 29.0524 6.57436 28.5724 7.05461L11.6591 23.0163ZM28.9658 20.1882C29.0591 20.0948 29.1791 20.0481 29.2991 20.0481C29.4191 20.0481 29.5391 20.0948 29.6324 20.1882L30.0124 20.5684C30.1924 20.7484 30.1924 21.0486 30.0124 21.2354L28.2591 22.9896L27.8858 21.2687L28.9658 20.1882ZM27.4924 13.7848C27.5858 13.6914 27.7058 13.6447 27.8258 13.6447C27.9458 13.6447 28.0658 13.6914 28.1591 13.7848L28.5391 14.165C28.7191 14.3518 28.7191 14.6453 28.5391 14.832L26.8724 16.4996L26.4991 14.7787L27.4924 13.7848ZM28.1324 26.9784C28.2058 27.3052 28.1591 27.6521 28.0058 27.9522L27.0791 29.7932C26.9924 29.9666 26.8191 30.08 26.6258 30.0667C26.4324 30.06 26.2658 29.9533 26.1858 29.7732L20.2324 16.2728L21.2458 15.3189L25.2991 24.6171C25.3791 24.7972 25.5591 24.9106 25.7458 24.9106C25.8124 24.9106 25.8791 24.8973 25.9391 24.8706C26.1858 24.7639 26.2991 24.4771 26.1924 24.2303L21.9991 14.6119L24.8924 11.8838L28.1324 26.9784Z" fill="#0E2855"/>
    <path d="M26.012 3.79297H26.0054C25.7387 3.79297 25.5254 4.00641 25.5187 4.26654C25.512 4.53335 25.7254 4.75346 25.992 4.76013C26.672 4.77347 27.2387 5.33377 27.2454 6.01412C27.252 6.28093 27.4654 6.4877 27.732 6.4877H27.7387C28.0054 6.48103 28.2187 6.26092 28.212 5.99411C28.1987 4.80682 27.2054 3.81298 26.012 3.79297Z" fill="#D8242A"/>
    <path d="M0.826667 13.6979L4.01334 10.5029C4.2 10.3161 4.2 10.0093 4.01334 9.81585C3.82667 9.62909 3.52 9.62909 3.32667 9.81585L0.14 13.0108C-0.0466667 13.1976 -0.0466667 13.5044 0.14 13.6979C0.233334 13.7913 0.360002 13.838 0.480002 13.838C0.606669 13.838 0.733333 13.7913 0.826667 13.6979Z" fill="#D8242A"/>
    <path d="M6.15479 16.2527L9.34146 13.0644C9.52813 12.8776 9.52813 12.5641 9.34146 12.3774C9.15479 12.1906 8.84813 12.1906 8.65479 12.3774L5.46813 15.5724C5.28146 15.7591 5.28146 16.066 5.46813 16.2594C5.56146 16.3528 5.68813 16.3995 5.80813 16.3995C5.93479 16.3928 6.05479 16.3461 6.15479 16.2527Z" fill="#D8242A"/>
    <path d="M21.4868 27.9848L18.3002 31.1731C18.1135 31.3599 18.1135 31.6667 18.3002 31.8602C18.3935 31.9535 18.5202 32.0002 18.6402 32.0002C18.7668 32.0002 18.8868 31.9535 18.9802 31.8602L22.1668 28.6718C22.3535 28.4851 22.3535 28.1782 22.1668 27.9848C21.9868 27.798 21.6802 27.798 21.4868 27.9848Z" fill="#D8242A"/>
    <path d="M19.6208 22.6625C19.4341 22.4758 19.1274 22.4758 18.9341 22.6625L15.7474 25.8509C15.5608 26.0376 15.5608 26.3511 15.7474 26.5379C15.8408 26.6313 15.9674 26.678 16.0874 26.678C16.2141 26.678 16.3341 26.6313 16.4274 26.5379L19.6141 23.3496C19.8141 23.1561 19.8141 22.8493 19.6208 22.6625Z" fill="#D8242A"/>
</svg>
