<svg width="34" height="34" viewBox="0 0 34 34" fill="none" xmlns="http://www.w3.org/2000/svg">
    <path d="M0.922852 28.1276V30.1303C0.922852 31.7143 2.30153 32.9996 4.00553 32.9996H29.8403C31.5417 32.9996 32.923 31.7143 32.923 30.1303V6.0715C32.923 4.48749 31.5443 3.20215 29.8403 3.20215H4.00553C2.30419 3.20215 0.922852 4.48749 0.922852 6.0715V28.1276Z" stroke="#0E2855" stroke-miterlimit="10" stroke-linecap="round"/>
    <path d="M32.923 9.30664H0.922852" stroke="#0E2855" stroke-miterlimit="10"/>
    <path d="M7.61914 5.40269V1" stroke="#0E2855" stroke-miterlimit="10" stroke-linecap="round"/>
    <path d="M26.2275 5.40269V1" stroke="#0E2855" stroke-miterlimit="10" stroke-linecap="round"/>
    <path d="M18.6666 19.2984H15.3759C14.7626 19.2984 14.2666 18.8024 14.2666 18.1891V14.8984C14.2666 14.2851 14.7626 13.7891 15.3759 13.7891H18.6666C19.28 13.7891 19.776 14.2851 19.776 14.8984V18.1891C19.776 18.8024 19.28 19.2984 18.6666 19.2984Z" stroke="#0E2855" stroke-miterlimit="10"/>
    <path d="M27.4938 19.2984H24.2031C23.5898 19.2984 23.0938 18.8024 23.0938 18.1891V14.8984C23.0938 14.2851 23.5898 13.7891 24.2031 13.7891H27.4938C28.1071 13.7891 28.6031 14.2851 28.6031 14.8984V18.1891C28.6031 18.8024 28.1071 19.2984 27.4938 19.2984Z" stroke="#0E2855" stroke-miterlimit="10"/>
    <path d="M9.83752 28.6881H6.54684C5.9335 28.6881 5.4375 28.1921 5.4375 27.5787V24.2881C5.4375 23.6747 5.9335 23.1787 6.54684 23.1787H9.83752C10.4509 23.1787 10.9469 23.6747 10.9469 24.2881V27.5787C10.9469 28.1921 10.4509 28.6881 9.83752 28.6881V28.6881Z" stroke="#0E2855" stroke-miterlimit="10"/>
    <path d="M18.6666 28.6881H15.3759C14.7626 28.6881 14.2666 28.1921 14.2666 27.5787V24.2881C14.2666 23.6747 14.7626 23.1787 15.3759 23.1787H18.6666C19.28 23.1787 19.776 23.6747 19.776 24.2881V27.5787C19.776 28.1921 19.28 28.6881 18.6666 28.6881Z" stroke="#0E2855" stroke-miterlimit="10"/>
    <path d="M27.4938 28.6881H24.2031C23.5898 28.6881 23.0938 28.1921 23.0938 27.5787V24.2881C23.0938 23.6747 23.5898 23.1787 24.2031 23.1787H27.4938C28.1071 23.1787 28.6031 23.6747 28.6031 24.2881V27.5787C28.6031 28.1921 28.1071 28.6881 27.4938 28.6881Z" stroke="#0E2855" stroke-miterlimit="10"/>
    <path d="M5.4375 17.2298L8.13885 18.9445L10.9469 14.4111" stroke="#D8242A" stroke-linecap="round" stroke-linejoin="round"/>
</svg>
