<svg width="33" height="32" viewBox="0 0 33 32" fill="none" xmlns="http://www.w3.org/2000/svg">
    <path d="M25.0302 29.2458C25.6972 29.9124 27.138 30.7991 28.4653 31.3658C29.7527 31.9124 31.4602 32.3858 32.314 31.5324C33.9015 29.9458 31.0533 25.2791 30.0195 24.2458L26.4909 20.9191L27.0379 18.3724L27.5915 18.9191C27.865 19.1924 28.2252 19.3391 28.6121 19.3391C28.9989 19.3391 29.3591 19.1924 29.6326 18.9191L30.0128 18.5391C30.5731 17.9791 30.5731 17.0658 30.0128 16.5057L27.8983 14.3924L28.4386 11.8924L29.0723 12.5257C29.6326 13.0857 30.5464 13.0857 31.1067 12.5257L31.4869 12.1457C32.0472 11.5857 32.0472 10.6724 31.4869 10.1124L29.2924 7.91908L29.8661 5.25907C29.9861 4.71241 29.9061 4.13907 29.6593 3.64574L28.7321 1.80574C28.472 1.2924 27.9584 0.985735 27.3848 0.999069C26.8111 1.0124 26.3109 1.34573 26.0841 1.8724L20.2677 15.0524L13.1106 8.30574C13.0039 8.20574 12.9439 8.07241 12.9572 7.92574L13.0906 4.89907C13.1106 4.04574 12.8905 3.19907 12.4369 2.4724L11.4164 0.832401C11.223 0.519067 10.8694 0.345734 10.5026 0.379067C10.1357 0.4124 9.82223 0.645733 9.68215 0.9924L7.62773 6.15907L6.12029 4.6524C5.93352 4.46574 5.62003 4.46574 5.43327 4.6524C5.33988 4.74574 5.29318 4.8724 5.29318 4.9924C5.29318 5.11907 5.33988 5.23907 5.43327 5.33241L6.94071 6.83907L1.77133 8.89241C1.42449 9.03241 1.19103 9.34574 1.16435 9.71241C1.16435 9.74574 1.15769 9.77241 1.15769 9.79908C1.15769 10.1324 1.32445 10.4457 1.61793 10.6257L3.25878 11.6457C3.98583 12.0991 4.82627 12.3257 5.69339 12.2991L8.71497 12.1724C8.86171 12.1657 8.99512 12.2258 9.09517 12.3258L15.8454 19.4791L2.65847 25.2924C2.13153 25.5258 1.79803 26.0258 1.78469 26.5924C1.78469 26.6058 1.78469 26.6191 1.78469 26.6324C1.78469 27.1858 2.09151 27.6858 2.59177 27.9391L4.43274 28.8658C4.933 29.1191 5.50662 29.1924 6.04691 29.0724L8.70831 28.4991L10.9028 30.6924C11.4631 31.2524 12.3769 31.2524 12.9372 30.6924L13.3174 30.3124C13.8777 29.7524 13.8777 28.8391 13.3174 28.2791L12.6837 27.6458L15.185 27.1058L17.2995 29.2191C17.8598 29.7791 18.7736 29.7791 19.3339 29.2191L19.7141 28.8391C20.2744 28.2791 20.2744 27.3658 19.7141 26.8058L19.1671 26.2591L21.7151 25.7124L25.0302 29.2458ZM29.3124 17.1858C29.4058 17.2791 29.4525 17.3991 29.4525 17.5191C29.4525 17.6391 29.4058 17.7591 29.3124 17.8524L28.9322 18.2324C28.8455 18.3191 28.7254 18.3658 28.5987 18.3658C28.472 18.3658 28.3519 18.3191 28.2652 18.2324L27.2714 17.2391L27.6449 15.5191L29.3124 17.1858ZM30.7865 10.7924C30.8799 10.8857 30.9266 11.0057 30.9266 11.1257C30.9266 11.2457 30.8799 11.3657 30.7865 11.4591L30.4063 11.8391C30.2196 12.0191 29.9261 12.0191 29.7393 11.8391L28.6654 10.7657L29.0389 9.04574L30.7865 10.7924ZM26.9579 2.25907C27.0379 2.07907 27.2047 1.9724 27.3981 1.96573C27.5915 1.95907 27.7649 2.05907 27.8517 2.23907L28.7788 4.07907C28.9322 4.37907 28.9723 4.72574 28.9055 5.05241L25.6572 20.1524L22.7623 17.4258L26.9579 7.81241C27.0646 7.56574 26.9512 7.27907 26.7044 7.17241C26.4576 7.06574 26.1708 7.17907 26.0641 7.42574L22.0086 16.7191L20.9947 15.7657L26.9579 2.25907ZM9.76887 11.6591C9.47538 11.3524 9.0685 11.1857 8.64161 11.1991L5.62003 11.3257C4.95301 11.3457 4.306 11.1724 3.73904 10.8191L2.10484 9.78574L7.66109 7.57241L9.56875 9.47908C9.75551 9.66574 10.0623 9.66574 10.2558 9.47908C10.4425 9.29241 10.4425 8.98575 10.2558 8.79241L8.34812 6.88574L10.5693 1.3324L11.5898 2.9724C11.9233 3.50574 12.0967 4.11907 12.0967 4.74574C12.0967 4.77907 12.0967 4.81241 12.0967 4.85241L11.97 7.87907C11.9433 8.30574 12.1168 8.71241 12.4302 9.00574L29.3391 24.9391C30.493 26.0991 32.4474 30.0191 31.627 30.8458C31.3535 31.1191 30.4797 31.1658 28.8455 30.4724C27.4714 29.8858 26.2108 29.0524 25.7305 28.5724L9.76887 11.6591ZM12.597 28.9658C12.6904 29.0591 12.7371 29.1791 12.7371 29.2991C12.7371 29.4191 12.6904 29.5391 12.597 29.6324L12.2168 30.0124C12.0367 30.1924 11.7365 30.1924 11.5498 30.0124L9.79553 28.2591L11.5164 27.8858L12.597 28.9658ZM19.0004 27.4924C19.0937 27.5858 19.1404 27.7058 19.1404 27.8258C19.1404 27.9458 19.0937 28.0658 19.0004 28.1591L18.6202 28.5391C18.4334 28.7191 18.1399 28.7191 17.9531 28.5391L16.2856 26.8724L18.0065 26.4991L19.0004 27.4924ZM5.80679 28.1324C5.47995 28.2058 5.13309 28.1591 4.83293 28.0058L2.99198 27.0791C2.81856 26.9924 2.70516 26.8191 2.7185 26.6258C2.72517 26.4324 2.8319 26.2658 3.01199 26.1858L16.5124 20.2324L17.4662 21.2458L8.16801 25.2991C7.98792 25.3791 7.87454 25.5591 7.87454 25.7458C7.87454 25.8124 7.88788 25.8791 7.91456 25.9391C8.02128 26.1858 8.3081 26.2991 8.55489 26.1924L18.1732 21.9991L20.9014 24.8924L5.80679 28.1324Z" fill="#0E2855"/>
    <path d="M28.9922 26.012L28.9922 26.0054C28.9922 25.7387 28.7787 25.5254 28.5186 25.5187C28.2518 25.512 28.0317 25.7254 28.025 25.992C28.0117 26.672 27.4514 27.2387 26.771 27.2454C26.5042 27.252 26.2975 27.4654 26.2975 27.732L26.2975 27.7387C26.3041 28.0054 26.5242 28.2187 26.791 28.212C27.9783 28.1987 28.9722 27.2054 28.9922 26.012Z" fill="#D8242A"/>
    <path d="M19.0873 0.826667L22.2823 4.01334C22.469 4.2 22.7759 4.2 22.9693 4.01334C23.1561 3.82667 23.1561 3.52 22.9693 3.32667L19.7743 0.14C19.5875 -0.0466669 19.2807 -0.0466669 19.0873 0.14C18.9939 0.233333 18.9472 0.360002 18.9472 0.480002C18.9472 0.606669 18.9939 0.733333 19.0873 0.826667Z" fill="#D8242A"/>
    <path d="M16.5324 6.15479L19.7208 9.34146C19.9075 9.52813 20.221 9.52813 20.4078 9.34146C20.5945 9.15479 20.5945 8.84813 20.4078 8.65479L17.2128 5.46813C17.026 5.28146 16.7192 5.28146 16.5258 5.46813C16.4324 5.56146 16.3857 5.68813 16.3857 5.80813C16.3923 5.93479 16.439 6.05479 16.5324 6.15479Z" fill="#D8242A"/>
    <path d="M4.80036 21.4868L1.61202 18.3002C1.42526 18.1135 1.11843 18.1135 0.924997 18.3002C0.831615 18.3935 0.784929 18.5202 0.784929 18.6402C0.784929 18.7668 0.831615 18.8868 0.924997 18.9802L4.11333 22.1668C4.3001 22.3535 4.60692 22.3535 4.80036 22.1668C4.98712 21.9868 4.98712 21.6802 4.80036 21.4868Z" fill="#D8242A"/>
    <path d="M10.1226 19.6208C10.3094 19.4341 10.3094 19.1274 10.1226 18.9341L6.93429 15.7474C6.74752 15.5608 6.43403 15.5608 6.24726 15.7474C6.15388 15.8408 6.10717 15.9674 6.10717 16.0874C6.10717 16.2141 6.15388 16.3341 6.24726 16.4274L9.4356 19.6141C9.62903 19.8141 9.93586 19.8141 10.1226 19.6208Z" fill="#D8242A"/>
</svg>
