<svg width="33" height="32" viewBox="0 0 33 32" fill="none" xmlns="http://www.w3.org/2000/svg">
    <path d="M28.4167 11.8079C28.3695 11.5788 28.1674 11.417 27.9382 11.417H11.5608C12.7268 9.48274 13.8658 7.10363 13.8658 5.18283C13.8658 2.3252 11.5406 1.46146e-05 8.68295 1.46146e-05C5.82533 -0.00672506 3.50014 2.31846 3.50014 5.17609C3.50014 7.09689 4.63914 9.476 5.80511 11.4103H4.41C4.17411 11.4103 3.97866 11.572 3.93148 11.8012L0.00898624 31.4136C-0.0179725 31.5552 0.0157259 31.7102 0.110081 31.818C0.204437 31.9326 0.33923 32 0.487503 32H31.8607C32.009 32 32.1438 31.9326 32.2381 31.818C32.3325 31.7035 32.3662 31.5552 32.3392 31.4136L28.4167 11.8079ZM29.2996 21.2165H23.6922L23.2878 17.294H28.5178L29.2996 21.2165ZM28.3156 16.31H23.18L22.7756 12.3875H27.5271L28.3156 16.31ZM22.2027 16.31H16.6627V12.3943H21.7984L22.2027 16.31ZM8.68295 0.970528C11.0014 0.970528 12.8885 2.85764 12.8885 5.17609C12.8885 8.08763 9.78826 12.4482 8.68295 13.8972C7.58438 12.4482 4.47739 8.08763 4.47739 5.17609C4.47739 2.85764 6.3645 0.970528 8.68295 0.970528ZM6.96433 15.1845C6.96433 14.8745 7.28784 14.5442 7.80005 14.3623C8.07638 14.7329 8.26509 14.9621 8.29879 15.0093C8.39314 15.1238 8.53468 15.1912 8.67621 15.1912C8.82448 15.1912 8.96602 15.1238 9.05363 15.0093C9.08733 14.9621 9.27604 14.7329 9.55237 14.3623C10.0646 14.551 10.3881 14.8745 10.3881 15.1845C10.3881 15.6495 9.68042 16.1685 8.66947 16.1685C7.672 16.1685 6.96433 15.6495 6.96433 15.1845ZM1.86914 27.1003H8.04942L7.64504 31.0227H1.08733L1.86914 27.1003ZM15.6787 31.016H8.62903L9.03341 27.0935H15.6855V31.016H15.6787ZM16.6627 31.016V26.6015C16.6627 26.3319 16.4403 26.1095 16.1707 26.1095H9.13451L9.30974 24.4246C9.3367 24.155 9.14125 23.9124 8.87166 23.8854C8.60207 23.8517 8.35945 24.0539 8.33249 24.3235L8.15052 26.1095H2.06459L2.84639 22.187H5.38725C5.65684 22.187 5.87924 21.9646 5.87924 21.695C5.87924 21.4254 5.65684 21.203 5.38725 21.203H3.04858L4.80764 12.3943H6.41842C6.69475 12.8189 6.96433 13.2098 7.20696 13.5535C6.47234 13.8972 5.98034 14.4903 5.98034 15.1912C5.98034 15.9326 6.53299 16.5661 7.34849 16.8964C6.8902 17.7658 6.15557 19.4912 6.58691 20.9402C6.82954 21.7489 7.38893 22.3488 8.24487 22.7262C10.0983 23.5417 11.4058 22.7801 12.4572 22.1668C13.4277 21.6007 14.068 21.2704 14.9239 21.6411C15.9888 22.1061 16.1842 22.7936 16.4134 23.5889C16.6695 24.4987 16.9593 25.5299 18.5431 26.0489C19.6147 26.3993 20.565 26.0084 21.4007 25.658C22.5802 25.1727 23.5372 24.7818 24.8447 26.1163C24.1033 26.46 23.6248 27.0598 23.6248 27.7607C23.6248 28.8593 24.811 29.722 26.3207 29.722C27.8304 29.722 29.0166 28.8593 29.0166 27.7607C29.0166 26.6622 27.8304 25.7995 26.3207 25.7995C26.1792 25.7995 26.0444 25.813 25.9096 25.8265C23.9618 23.5417 22.3375 24.2022 21.0233 24.7481C20.2415 25.0716 19.5743 25.3479 18.8464 25.112C17.7613 24.7548 17.5928 24.155 17.3569 23.3193C17.1143 22.4566 16.811 21.385 15.3148 20.738C13.9601 20.1516 12.8952 20.7717 11.9652 21.3176C10.9744 21.8972 10.0376 22.4431 8.64251 21.8231C8.04942 21.5602 7.68548 21.1828 7.53047 20.6504C7.15978 19.4103 7.98876 17.7456 8.33923 17.1188C8.4538 17.1255 8.56164 17.1458 8.67621 17.1458C10.1859 17.1458 11.3721 16.2831 11.3721 15.1845C11.3721 14.4836 10.8868 13.8905 10.1455 13.5468C10.3881 13.203 10.6577 12.8121 10.934 12.3875H15.672V16.31H12.1606C11.891 16.31 11.6686 16.5324 11.6686 16.802C11.6686 17.0716 11.891 17.294 12.1606 17.294H15.672V19.5855C15.672 19.8551 15.8944 20.0775 16.164 20.0775C16.4336 20.0775 16.656 19.8551 16.656 19.5855V17.294H22.2971L22.7015 21.2165H18.415C18.1455 21.2165 17.923 21.4389 17.923 21.7085C17.923 21.9781 18.1455 22.2005 18.415 22.2005H22.8026L22.8902 23.0497C22.9171 23.2991 23.1261 23.4878 23.3754 23.4878C23.3889 23.4878 23.4091 23.4878 23.4294 23.4878C23.6989 23.4608 23.8944 23.2182 23.8674 22.9486L23.7933 22.2005H29.4951L31.2609 31.0227H16.6627V31.016ZM26.3274 26.7902C27.3384 26.7902 28.046 27.3092 28.046 27.7742C28.046 28.2393 27.3384 28.7515 26.3274 28.7515C25.3165 28.7515 24.6088 28.2325 24.6088 27.7742C24.6088 27.3159 25.3165 26.7902 26.3274 26.7902Z" fill="#0E2855"/>
    <path fill-rule="evenodd" clip-rule="evenodd" d="M11.5607 11.417C12.7266 9.48274 13.8656 7.10363 13.8656 5.18283C13.8656 2.3252 11.5404 1.46146e-05 8.68281 1.46146e-05C5.82519 -0.00672506 3.5 2.31846 3.5 5.17609C3.5 7.09689 4.63901 9.476 5.80497 11.4103C6.0813 11.8349 7.55729 14.0185 7.79991 14.3623C8.07624 14.7329 8.26495 14.9621 8.29865 15.0093C8.393 15.1238 8.53454 15.1912 8.67607 15.1912C8.82434 15.1912 8.96588 15.1238 9.05349 15.0093C9.08719 14.9621 9.2759 14.7329 9.55223 14.3623C9.79486 14.0185 11.2843 11.8416 11.5607 11.417ZM12.8884 5.17609C12.8884 2.85764 11.0013 0.970528 8.68281 0.970528C6.36436 0.970528 4.47725 2.85764 4.47725 5.17609C4.47725 8.08763 7.58424 12.4482 8.68281 13.8972C9.78812 12.4482 12.8884 8.08763 12.8884 5.17609Z" fill="#D8242A"/>
    <path d="M9.49815 17.7791C9.22857 17.7454 8.98594 17.9476 8.95898 18.2171L8.71635 20.5558C8.68939 20.8254 8.88484 21.068 9.15443 21.095C9.17465 21.095 9.18813 21.095 9.20835 21.095C9.45772 21.095 9.66665 20.9063 9.69361 20.6569L9.93623 18.3182C9.96319 18.0487 9.76774 17.806 9.49815 17.7791Z" fill="#0E2855"/>
    <path d="M11.041 5.21621C11.041 3.91545 9.98289 2.85059 8.68213 2.85059C7.38137 2.85059 6.32324 3.90872 6.32324 5.21621C6.32324 6.51697 7.38137 7.5751 8.68213 7.5751C9.98289 7.5751 11.041 6.52371 11.041 5.21621ZM8.68213 6.60459C7.92055 6.60459 7.3005 5.98454 7.3005 5.22295C7.3005 4.46137 7.92055 3.84132 8.68213 3.84132C9.44371 3.84132 10.0638 4.46137 10.0638 5.22295C10.0638 5.98454 9.44371 6.60459 8.68213 6.60459Z" fill="#D8242A"/>
</svg>
