<svg width="33" height="43" viewBox="0 0 33 43" fill="none" xmlns="http://www.w3.org/2000/svg">
    <path d="M16.262 41.4288C16.2189 41.4137 16.1784 41.3883 16.1408 41.3507C15.8469 41.0568 12.1227 37.3023 8.47891 32.3661C6.65695 29.8979 4.87097 27.1554 3.54403 24.419C2.2107 21.6694 1.37891 19.0028 1.37891 16.6661C1.37891 8.32185 8.11374 1.53351 16.3702 1.53351C24.6266 1.53351 31.3614 8.32185 31.3614 16.6661C31.3614 20.3925 29.2889 25.3495 24.917 31.4606L24.8946 31.483L24.8556 31.5335L23.9544 32.6997L23.9531 32.7015C22.5449 34.532 21.2284 36.229 20.0389 37.5933L19.9922 37.6399L19.9392 37.6929L19.9168 37.7153L19.8959 37.739C19.7669 37.8855 19.6414 38.0283 19.5195 38.1671C19.0204 38.735 18.5804 39.2357 18.1951 39.649L18.1723 39.6719L18.1723 39.6719L18.1722 39.672L18.1721 39.6721L18.1719 39.6723L18.1707 39.6735L18.1662 39.678L18.1502 39.694L18.1015 39.7427C18.0616 39.7826 18.0265 39.8229 17.995 39.8639C17.9891 39.8716 17.9834 39.8791 17.9782 39.8862C17.5533 40.3365 17.2127 40.694 16.9751 40.9423C16.7258 41.2029 16.5986 41.334 16.5996 41.333C16.5319 41.4006 16.455 41.4288 16.3702 41.4288H16.262ZM17.9412 39.9394C17.9392 39.9423 17.9394 39.9419 17.9414 39.939L17.9412 39.9394ZM16.2288 9.78205C12.549 9.78205 9.3624 12.9686 9.3624 16.6484C9.3624 20.3283 12.5489 23.5149 16.2288 23.5149C20.1404 23.5149 23.0952 20.5383 23.0952 16.6484C23.0952 12.7565 20.1207 9.78205 16.2288 9.78205Z" fill="url(#paint0_linear_5423_64677)" stroke="white" stroke-width="2"/>
    <defs>
        <linearGradient id="paint0_linear_5423_64677" x1="0.378906" y1="42.4465" x2="41.007" y2="12.1134" gradientUnits="userSpaceOnUse">
            <stop stop-color="#E7317D"/>
            <stop offset="1" stop-color="#D8242A"/>
        </linearGradient>
    </defs>
</svg>
