<svg width="33" height="43" viewBox="0 0 33 43" fill="none" xmlns="http://www.w3.org/2000/svg">
    <path d="M16.676 41.8331C16.6329 41.818 16.5924 41.7926 16.5548 41.7549C16.2609 41.4611 12.5367 37.7066 8.89297 32.7704C7.07101 30.3022 5.28504 27.5597 3.95809 24.8233C2.62476 22.0737 1.79297 19.4071 1.79297 17.0704C1.79297 8.72614 8.52781 1.93781 16.7842 1.93781C25.0407 1.93781 31.7755 8.72614 31.7755 17.0704C31.7755 20.7968 29.7029 25.7538 25.3311 31.8649L25.3086 31.8873L25.2696 31.9378L24.3685 33.104L24.3671 33.1058C22.959 34.9363 21.6425 36.6333 20.4529 37.9976L20.4063 38.0442L20.3533 38.0972L20.3309 38.1196L20.31 38.1433C20.1809 38.2898 20.0555 38.4326 19.9335 38.5714C19.4345 39.1393 18.9944 39.64 18.6092 40.0533L18.5864 40.0762L18.5864 40.0762L18.5863 40.0763L18.5862 40.0764L18.586 40.0766L18.5848 40.0778L18.5803 40.0823L18.5642 40.0983L18.5156 40.147C18.4757 40.1869 18.4405 40.2272 18.409 40.2682C18.4031 40.2759 18.3975 40.2834 18.3923 40.2905C17.9673 40.7408 17.6268 41.0983 17.3892 41.3466C17.1399 41.6072 17.0126 41.7383 17.0136 41.7373C16.946 41.8049 16.869 41.8331 16.7842 41.8331H16.676ZM18.3552 40.3437C18.3532 40.3466 18.3535 40.3462 18.3554 40.3433L18.3552 40.3437ZM16.6429 10.1863C12.963 10.1863 9.77646 13.3729 9.77646 17.0527C9.77646 20.7326 12.963 23.9192 16.6429 23.9192C20.5544 23.9192 23.5093 20.9426 23.5093 17.0527C23.5093 13.1608 20.5348 10.1863 16.6429 10.1863Z" fill="#285199" stroke="white" stroke-width="2"/>
</svg>
