<svg width="37" height="34" viewBox="0 0 37 34" fill="none" xmlns="http://www.w3.org/2000/svg">
    <path d="M9.58175 21.2094C9.58175 19.8352 8.5156 18.7598 7.15318 18.7598C5.79076 18.7598 4.72461 19.8819 4.72461 21.2094C4.72461 22.5369 5.83712 23.659 7.15318 23.659C8.46924 23.659 9.58175 22.5836 9.58175 21.2094Z"
          stroke="#F0AB00" stroke-width="2"/>
    <path d="M31.4392 7.12394C31.4392 5.74971 30.373 4.67432 29.0106 4.67432C27.6482 4.67432 26.582 5.79647 26.582 7.12394C26.582 8.45142 27.6945 9.57357 29.0106 9.57357C30.3267 9.57357 31.4392 8.49817 31.4392 7.12394Z"
          stroke="black" stroke-width="2"/>
    <path d="M8.34845 30.1787L9.08605 30.8539L9.10521 30.833L9.12315 30.811L8.34845 30.1787ZM8.38386 30.138L7.63168 29.4791L7.62019 29.4922L7.60917 29.5057L8.38386 30.138ZM9.02133 29.4103L8.30693 28.7106L8.28747 28.7305L8.26915 28.7514L9.02133 29.4103ZM9.07224 29.3561L9.83156 30.0069L9.83719 30.0002L9.07224 29.3561ZM10.4689 27.5709L9.67118 26.9679L9.67114 26.9679L10.4689 27.5709ZM10.7832 27.1551L11.581 27.7581L11.5949 27.7396L11.608 27.7205L10.7832 27.1551ZM10.8054 27.1234L11.6113 27.7155L11.6174 27.7072L11.6233 27.6987L10.8054 27.1234ZM6.47589 30.721L7.19029 30.0213L6.47589 30.721ZM7.15541 31.008L7.15307 32.008L7.15541 31.008ZM9.12315 30.811C9.11591 30.8199 9.11051 30.8261 9.10875 30.8281C9.10732 30.8297 9.10652 30.8306 9.11023 30.8264C9.1126 30.8238 9.11949 30.8161 9.12687 30.8077C9.13458 30.7989 9.1458 30.786 9.15856 30.7703L7.60917 29.5057C7.6164 29.4968 7.6218 29.4906 7.62357 29.4886C7.625 29.487 7.6258 29.4861 7.62209 29.4902C7.61971 29.4929 7.61282 29.5005 7.60545 29.509C7.59773 29.5177 7.58652 29.5307 7.57375 29.5464L9.12315 30.811ZM9.73573 30.1101C9.74848 30.0971 9.79048 30.0548 9.83153 30.0069L8.31295 28.7054C8.31666 28.701 8.31942 28.698 8.32086 28.6964C8.32231 28.6948 8.32288 28.6942 8.32221 28.6949C8.32153 28.6956 8.3201 28.6971 8.31745 28.6999C8.31465 28.7027 8.31159 28.7059 8.30693 28.7106L9.73573 30.1101ZM9.83719 30.0002C10.2908 29.4615 10.7757 28.8235 11.2667 28.1738L9.67114 26.9679C9.17496 27.6244 8.72137 28.2203 8.30729 28.712L9.83719 30.0002ZM11.2666 28.1739L11.581 27.7581L9.98549 26.5521L9.67118 26.9679L11.2666 28.1739ZM10.7832 27.1551C11.608 27.7205 11.608 27.7205 11.608 27.7205C11.608 27.7205 11.608 27.7205 11.608 27.7205C11.608 27.7206 11.608 27.7206 11.608 27.7206C11.608 27.7206 11.608 27.7206 11.6079 27.7206C11.6079 27.7206 11.6079 27.7206 11.6079 27.7206C11.6079 27.7207 11.6079 27.7207 11.6079 27.7206C11.608 27.7206 11.608 27.7205 11.6081 27.7203C11.6084 27.7199 11.6088 27.7193 11.6093 27.7186C11.6104 27.717 11.6119 27.7148 11.6134 27.7127C11.6193 27.7042 11.6173 27.7073 11.6113 27.7155L9.99944 26.5314C9.98682 26.5486 9.97369 26.5675 9.97016 26.5726C9.96698 26.5772 9.96416 26.5813 9.96215 26.5842C9.96113 26.5857 9.96028 26.5869 9.95965 26.5879C9.95933 26.5883 9.95907 26.5887 9.95887 26.589C9.95877 26.5891 9.95868 26.5893 9.95861 26.5894C9.95858 26.5894 9.95854 26.5895 9.95852 26.5895C9.9585 26.5895 9.95849 26.5895 9.95848 26.5896C9.95847 26.5896 9.95847 26.5896 9.95846 26.5896C9.95846 26.5896 9.95845 26.5896 9.95845 26.5896C9.95845 26.5896 9.95844 26.5896 10.7832 27.1551ZM11.6233 27.6987C13.2665 25.3625 14.2268 23.2042 14.2268 21.3338H12.2268C12.2268 22.5774 11.5581 24.315 9.98742 26.5481L11.6233 27.6987ZM14.2268 21.3338C14.2268 17.3621 11.0808 14.0854 7.1532 14.0854V16.0854C9.92338 16.0854 12.2268 18.4131 12.2268 21.3338H14.2268ZM7.1532 14.0854C3.22508 14.0854 0.0839844 17.3604 0.0839844 21.3315H2.08398C2.08398 18.4103 4.38349 16.0854 7.1532 16.0854V14.0854ZM0.0839844 21.3315C0.0839844 22.5001 0.472006 23.7066 0.990022 24.8129C1.51338 25.9306 2.20388 27.018 2.88551 27.9672C4.24873 29.8655 5.63648 31.2931 5.76149 31.4208L7.19029 30.0213C7.09617 29.9252 5.78797 28.5801 4.51002 26.8006C3.87106 25.9108 3.25467 24.933 2.80129 23.9648C2.34256 22.9851 2.08398 22.0849 2.08398 21.3315H0.0839844ZM5.76149 31.4208C6.1183 31.7851 6.58091 32.0067 7.15307 32.008L7.15776 30.008C7.14456 30.008 7.14209 30.0069 7.14767 30.008C7.15369 30.0092 7.16374 30.0119 7.17552 30.017C7.18721 30.0221 7.19542 30.0273 7.19932 30.0301C7.20279 30.0326 7.19971 30.0309 7.19029 30.0213L5.76149 31.4208ZM9.13605 30.797L9.77352 30.0693L8.26915 28.7514L7.63168 29.4791L9.13605 30.797ZM7.15307 32.008C7.7476 32.0094 8.18786 31.7383 8.48075 31.4876C8.73215 31.2725 8.99196 30.9567 9.08605 30.8539L7.61085 29.5034C7.56198 29.5568 7.51472 29.6106 7.47352 29.6575C7.43026 29.7068 7.39366 29.7487 7.35655 29.7899C7.28193 29.8727 7.22691 29.9283 7.18033 29.9681C7.09276 30.0431 7.10014 30.0079 7.15776 30.008L7.15307 32.008Z"
          fill="#F0AB00"/>
    <path d="M30.2059 16.0932L30.9435 16.7685L30.9626 16.7475L30.9806 16.7256L30.2059 16.0932ZM30.2413 16.0526L29.4891 15.3936L29.4776 15.4067L29.4666 15.4202L30.2413 16.0526ZM30.8788 15.3249L30.1644 14.6252L30.1449 14.645L30.1266 14.6659L30.8788 15.3249ZM30.9297 15.2707L31.689 15.9214L31.6946 15.9148L30.9297 15.2707ZM32.3263 13.4854L31.5286 12.8824L31.5286 12.8825L32.3263 13.4854ZM32.6406 13.0696L33.4384 13.6726L33.4523 13.6542L33.4654 13.6351L32.6406 13.0696ZM32.6628 13.038L33.4687 13.63L33.4748 13.6217L33.4807 13.6133L32.6628 13.038ZM28.3333 16.6356L29.0477 15.9359L28.3333 16.6356ZM29.0128 16.9226L29.0105 17.9226L29.0128 16.9226ZM30.9806 16.7256C30.9733 16.7344 30.9679 16.7406 30.9662 16.7426C30.9647 16.7443 30.9639 16.7451 30.9676 16.741C30.97 16.7384 30.9769 16.7307 30.9843 16.7223C30.992 16.7135 31.0032 16.7005 31.016 16.6849L29.4666 15.4202C29.4738 15.4114 29.4792 15.4052 29.481 15.4032C29.4824 15.4015 29.4832 15.4007 29.4795 15.4048C29.4771 15.4074 29.4702 15.4151 29.4629 15.4235C29.4552 15.4323 29.4439 15.4453 29.4312 15.4609L30.9806 16.7256ZM31.5932 16.0246C31.6059 16.0116 31.6479 15.9693 31.689 15.9214L30.1704 14.6199C30.1741 14.6156 30.1768 14.6125 30.1783 14.6109C30.1797 14.6093 30.1803 14.6088 30.1796 14.6095C30.179 14.6102 30.1775 14.6117 30.1749 14.6144C30.1721 14.6173 30.169 14.6204 30.1644 14.6252L31.5932 16.0246ZM31.6946 15.9148C32.1482 15.3761 32.6331 14.738 33.1241 14.0884L31.5286 12.8825C31.0324 13.539 30.5788 14.1348 30.1647 14.6266L31.6946 15.9148ZM33.1241 14.0884L33.4384 13.6726L31.8429 12.4666L31.5286 12.8824L33.1241 14.0884ZM32.6406 13.0696C33.4654 13.6351 33.4654 13.6351 33.4654 13.6351C33.4654 13.6351 33.4654 13.6351 33.4654 13.6351C33.4654 13.6351 33.4654 13.6351 33.4654 13.6351C33.4654 13.6351 33.4654 13.6351 33.4654 13.6351C33.4654 13.6352 33.4653 13.6352 33.4653 13.6352C33.4653 13.6352 33.4653 13.6352 33.4653 13.6352C33.4654 13.6351 33.4655 13.635 33.4656 13.6349C33.4658 13.6345 33.4662 13.6339 33.4668 13.6331C33.4679 13.6315 33.4693 13.6294 33.4709 13.6272C33.4767 13.6187 33.4747 13.6219 33.4687 13.63L31.8569 12.4459C31.8442 12.4631 31.8311 12.4821 31.8276 12.4872C31.8244 12.4918 31.8216 12.4958 31.8196 12.4988C31.8185 12.5003 31.8177 12.5015 31.8171 12.5024C31.8168 12.5029 31.8165 12.5032 31.8163 12.5035C31.8162 12.5037 31.8161 12.5038 31.816 12.5039C31.816 12.504 31.816 12.504 31.8159 12.5041C31.8159 12.5041 31.8159 12.5041 31.8159 12.5041C31.8159 12.5041 31.8159 12.5041 31.8159 12.5041C31.8159 12.5041 31.8159 12.5041 31.8159 12.5041C31.8159 12.5042 31.8159 12.5042 32.6406 13.0696ZM33.4807 13.6133C35.1239 11.2771 36.0843 9.11874 36.0843 7.24836H34.0843C34.0843 8.49199 33.4155 10.2296 31.8448 12.4627L33.4807 13.6133ZM36.0843 7.24836C36.0843 3.2767 32.9383 0 29.0106 0V2C31.7808 2 34.0843 4.32762 34.0843 7.24836H36.0843ZM29.0106 0C25.0825 0 21.9414 3.27492 21.9414 7.2461H23.9414C23.9414 4.32487 26.2409 2 29.0106 2V0ZM21.9414 7.2461C21.9414 8.41469 22.3294 9.62119 22.8474 10.7275C23.3708 11.8452 24.0613 12.9326 24.7429 13.8817C26.1062 15.78 27.4939 17.2077 27.6189 17.3353L29.0477 15.9359C28.9536 15.8398 27.6454 14.4947 26.3674 12.7151C25.7285 11.8254 25.1121 10.8476 24.6587 9.87934C24.2 8.89968 23.9414 7.99947 23.9414 7.2461H21.9414ZM27.6189 17.3353C27.9757 17.6996 28.4383 17.9212 29.0105 17.9226L29.0152 15.9226C29.002 15.9226 28.9995 15.9214 29.0051 15.9225C29.0111 15.9237 29.0212 15.9265 29.0329 15.9316C29.0446 15.9367 29.0528 15.9419 29.0567 15.9447C29.0602 15.9471 29.0571 15.9455 29.0477 15.9359L27.6189 17.3353ZM30.9935 16.7115L31.6309 15.9839L30.1266 14.6659L29.4891 15.3936L30.9935 16.7115ZM29.0105 17.9226C29.605 17.924 30.0453 17.6529 30.3382 17.4022C30.5896 17.187 30.8494 16.8713 30.9435 16.7685L29.4683 15.418C29.4194 15.4714 29.3721 15.5251 29.3309 15.5721C29.2877 15.6214 29.2511 15.6632 29.214 15.7044C29.1393 15.7873 29.0843 15.8428 29.0378 15.8827C28.9502 15.9576 28.9576 15.9224 29.0152 15.9226L29.0105 17.9226Z"
          fill="black"/>
    <path d="M29.8931 24.6858H19.1155M29.8931 24.6858C32.1697 24.6858 34.0234 26.5514 34.0234 28.843M29.8931 24.6858C32.1508 24.6858 34.0234 26.5708 34.0234 28.843M19.1155 24.6858C17.5743 24.6858 16.3202 23.4656 16.3202 21.9143M19.1155 24.6858C17.5923 24.6858 16.3202 23.4428 16.3202 21.9143M34.0234 28.843C34.0234 31.1346 32.1697 33.0001 29.8931 33.0001M34.0234 28.843C34.0234 31.1151 32.1508 33.0001 29.8931 33.0001M29.8931 33.0001H7.74805M16.3202 21.9143C16.3202 20.363 17.5743 19.1008 19.1155 19.1008M16.3202 21.9143C16.3202 20.3849 17.5957 19.1008 19.1155 19.1008M19.1155 19.1008H29.4737"
          stroke="black" stroke-width="2" stroke-linecap="round" stroke-linejoin="round"/>
</svg>
