<svg width="43" height="34" viewBox="0 0 43 34" fill="none" xmlns="http://www.w3.org/2000/svg">
    <path d="M2.14648 33H41.52" stroke="#F0AB00" stroke-width="2" stroke-miterlimit="10" stroke-linecap="round"
          stroke-linejoin="round"/>
    <path d="M2.16334 10.6787C2.25667 10.5798 2.38209 10.4898 2.56585 10.3969C2.60085 10.3879 2.68835 10.3759 2.75252 10.3699C2.81668 10.3609 2.88377 10.3549 2.95085 10.3459C3.01502 10.3369 3.08502 10.3309 3.16377 10.3279C3.32711 10.3249 3.4992 10.3399 3.65087 10.3549C3.68295 10.3669 3.73837 10.3909 3.77337 10.4059C4.01838 10.5138 4.26921 10.6937 4.53464 10.8796C4.80298 11.0685 5.0684 11.2603 5.33382 11.4552C5.51757 11.5901 5.70133 11.7221 5.88508 11.854C6.46843 12.2707 7.05177 12.6904 7.63803 13.1042C7.75179 13.1851 7.85971 13.2481 7.95304 13.302C7.99971 13.329 8.04638 13.356 8.09013 13.386C8.34972 13.5569 8.64139 13.6408 8.93598 13.6348C9.14307 13.6288 9.34724 13.5809 9.54849 13.4879C9.72641 13.404 9.90433 13.323 10.0852 13.2421C10.2806 13.1551 10.4731 13.0652 10.6685 12.9752C11.0185 12.8104 11.3656 12.6425 11.7127 12.4746L11.8935 12.3876C12.0073 12.3337 12.1181 12.2797 12.2319 12.2227C12.366 12.1568 12.5002 12.0938 12.6344 12.0279L13.2031 11.752L13.7632 11.4822C14.1132 11.3143 14.4632 11.1434 14.8103 10.9725C15.1253 10.8166 15.4403 10.6607 15.7524 10.5018L16.149 10.304C16.184 10.286 16.2511 10.253 16.327 10.202C16.4057 10.1481 16.4786 10.0881 16.5399 10.0191C16.7645 9.7763 16.8782 9.44951 16.8549 9.12272C16.8316 8.79293 16.6653 8.48113 16.4028 8.27426C16.2949 8.19032 16.1811 8.10937 16.0528 8.02842L15.8603 7.9085C15.4811 7.67165 15.099 7.4318 14.7169 7.20095C14.1365 6.84718 13.5532 6.4994 12.9698 6.15162C12.7336 6.01071 12.4973 5.86981 12.261 5.73189C11.8994 5.51903 11.5377 5.30317 11.1789 5.08731C10.7764 4.84146 10.3827 4.60162 10.021 4.32879C9.98892 4.30481 9.951 4.27183 9.92475 4.20287C10.2018 4.002 10.5198 3.82512 10.7998 3.67221C10.8698 3.63324 10.9689 3.59426 11.0739 3.55229C11.1673 3.51631 11.2577 3.47734 11.3481 3.43537C11.5785 3.33043 11.8848 3.30645 12.2406 3.27947C12.3398 3.27047 12.439 3.26448 12.5381 3.25548C12.6198 3.25848 12.7015 3.26148 12.7831 3.26448C13.0252 3.27347 13.2556 3.28246 13.4802 3.30045C13.6202 3.31245 13.7632 3.32744 13.8477 3.36341C13.9877 3.42038 14.1103 3.44436 14.189 3.45935L14.224 3.46835L14.3903 3.50732C14.5011 3.5343 14.6119 3.55829 14.7228 3.58827C14.8278 3.61525 14.9299 3.64523 15.0319 3.67521L15.1428 3.70819C15.3236 3.75916 15.5044 3.81013 15.6853 3.86409L15.9361 3.93904C16.1024 3.98701 16.2657 4.03798 16.432 4.08295C16.5282 4.10993 16.6245 4.13392 16.7207 4.1549C16.7878 4.1699 16.8578 4.18788 16.9249 4.20587C17.0036 4.22686 17.0795 4.25084 17.1582 4.27783C17.2312 4.30181 17.3041 4.3228 17.377 4.34678C17.4937 4.38276 17.6132 4.41274 17.7299 4.44572L17.8553 4.4817L18.042 4.53266C18.1528 4.56264 18.2608 4.59262 18.3716 4.62261C18.5437 4.67057 18.7158 4.71854 18.8849 4.76951C18.952 4.7905 19.0191 4.81148 19.0862 4.83247C19.1766 4.86245 19.267 4.88943 19.3574 4.91642C19.4566 4.9464 19.5587 4.97338 19.6579 5.00036L19.8212 5.04533C19.9875 5.09031 20.1508 5.13827 20.317 5.18624C20.4162 5.21323 20.5125 5.24321 20.6087 5.27319L20.8012 5.33015L20.9179 5.36613C21.0579 5.4081 21.2008 5.45007 21.3437 5.48905C21.4167 5.51004 21.4896 5.52802 21.5596 5.54301C21.5946 5.55201 21.6296 5.55801 21.6617 5.567C21.7287 5.58499 21.7958 5.60298 21.8629 5.62396L21.9679 5.65394C22.1838 5.7169 22.3996 5.77986 22.6183 5.84282C22.7146 5.8728 22.8138 5.89979 22.91 5.92977C23.05 5.97174 23.19 6.01371 23.3329 6.05569C23.5109 6.10665 23.6859 6.15162 23.8346 6.1876C23.9513 6.21758 24.0738 6.22957 24.1934 6.22658C24.4996 6.22058 24.733 6.10965 24.8584 6.05269L24.8876 6.0407C25.1092 5.93876 25.328 5.83383 25.5467 5.7289L25.678 5.66594L26.3197 5.35713C26.5851 5.23121 26.8476 5.1023 27.113 4.97638C27.2618 4.90442 27.9268 4.59262 28.1076 4.50268C28.3118 4.40375 28.5189 4.30181 28.7231 4.20287L28.9476 4.09195L29.2422 3.94504C29.3822 3.87608 29.5222 3.80713 29.6652 3.73817L29.8372 3.65423C30.0735 3.5373 30.3127 3.42038 30.5489 3.30645C30.6656 3.24949 30.7823 3.19552 30.8989 3.14155C31.0331 3.0786 31.1673 3.01863 31.3014 2.95268C31.4589 2.87772 31.6135 2.79977 31.771 2.72182C31.8848 2.66486 31.9985 2.6079 32.1123 2.55393C32.3544 2.43701 32.5965 2.31708 32.8415 2.20316C33.1448 2.06225 33.3927 1.94832 33.6202 1.84938C33.7107 1.81041 33.8011 1.77443 33.8915 1.73546C34.0402 1.6755 34.1948 1.61254 34.3582 1.53459C34.5128 1.46263 34.7023 1.40567 34.9065 1.34271L35.0465 1.30074C35.099 1.28574 35.1749 1.26776 35.2565 1.25277C35.3003 1.24377 35.3469 1.23478 35.3907 1.22578L35.4607 1.21079C35.5657 1.18681 35.6707 1.16582 35.7757 1.14484L35.9303 1.11485C36.0849 1.08487 36.2278 1.05789 36.359 1.0429C36.5486 1.02191 36.7528 1.01292 36.9978 1.00692H37.0678C37.2953 1.00093 37.5403 0.994931 37.7707 1.00692C37.9195 1.01292 38.0857 1.03391 38.2578 1.05489L38.3833 1.06988C38.5787 1.09387 38.7391 1.11485 38.8878 1.14184C39.092 1.18081 39.2991 1.23178 39.4945 1.27975C39.5674 1.29774 39.652 1.32472 39.7425 1.3547L39.8241 1.38168C40.1012 1.46863 40.39 1.60354 40.7371 1.80441C41.1512 2.04426 41.4954 2.32608 41.7929 2.66486C41.8862 2.77279 41.9562 2.88072 42 2.99165C42 2.99165 42 2.99165 42 2.99465C41.9242 3.17753 41.8075 3.34842 41.6471 3.52231C41.5683 3.60926 41.4779 3.6932 41.3729 3.78314C41.0258 4.07995 40.6729 4.34678 40.3229 4.57464C39.8737 4.87145 39.2787 5.2582 38.6691 5.63296C38.1528 5.94776 37.5841 6.28354 36.8811 6.68828C36.5399 6.88615 36.1811 7.08103 35.837 7.26991C35.6736 7.35985 35.5132 7.44679 35.3499 7.53674C35.2186 7.60869 35.0874 7.68364 34.9561 7.7556C34.679 7.9085 34.4048 8.0644 34.1248 8.2113C33.839 8.36421 33.5502 8.51111 33.2615 8.66102C33.0836 8.75396 32.9056 8.8439 32.7277 8.93684C32.5819 9.01179 32.439 9.08974 32.2931 9.16769C32.1502 9.24564 32.0044 9.32059 31.8585 9.39554C31.6544 9.50048 31.4502 9.60541 31.246 9.71034L30.896 9.89023L30.8639 9.90522C30.7735 9.94719 30.6248 10.0161 30.4731 10.1421C30.4206 10.187 30.3681 10.235 30.3214 10.286C30.196 10.4209 30.091 10.5828 30.0181 10.7507C29.8227 11.2064 29.6331 11.6621 29.4406 12.1178L29.3356 12.3666C29.1226 12.8733 28.9126 13.377 28.7026 13.8837C28.6414 14.0306 28.5831 14.1745 28.5218 14.3214C28.4343 14.5372 28.3439 14.7531 28.2535 14.966C28.163 15.1818 28.0697 15.3947 27.9764 15.6076C27.886 15.8174 27.7955 16.0273 27.7051 16.2372C27.6147 16.453 27.5243 16.6689 27.4339 16.8847C27.3464 17.0946 27.2589 17.3045 27.1714 17.5143C27.0722 17.7482 26.973 17.982 26.8709 18.2129C26.7718 18.4437 26.6726 18.6746 26.5734 18.9054C26.5034 19.0733 26.4334 19.2412 26.3634 19.4121C26.2963 19.577 26.2293 19.7389 26.1592 19.9008C26.0659 20.1227 25.9697 20.3415 25.8734 20.5634C25.7859 20.7643 25.6984 20.9681 25.6138 21.169C25.5438 21.3369 25.4738 21.5048 25.4038 21.6697C25.3163 21.8825 25.2259 22.0954 25.1355 22.3053C25.0217 22.5691 24.9051 22.8299 24.7884 23.0908C24.7213 23.2377 24.6571 23.3876 24.5901 23.5375C24.5346 23.6604 24.4821 23.7833 24.4267 23.9062C24.348 24.0831 24.2721 24.263 24.1934 24.4399C23.9775 24.9226 23.7705 25.3813 23.5138 25.786C23.365 26.0199 23.1754 26.2657 22.9158 26.5565C22.8983 26.5745 22.8809 26.5955 22.8634 26.6135C22.7204 26.7664 22.5921 26.8773 22.4638 26.9583C22.1488 27.1562 21.8162 27.36 21.4837 27.5009L21.3029 27.5789C21.1337 27.6508 20.9762 27.7198 20.8246 27.7768C20.8129 27.7828 20.7983 27.7858 20.7866 27.7888C20.7575 27.7078 20.74 27.5759 20.7808 27.327C20.7866 27.2911 20.7925 27.2581 20.7983 27.2221L20.8362 26.9253C20.8596 26.7244 20.8858 26.5236 20.9121 26.3257C20.95 26.0409 20.9937 25.7591 21.0346 25.4742L21.0696 25.2404L21.0841 25.1354C21.1133 24.9436 21.1396 24.7547 21.1716 24.5628C21.1921 24.4429 21.2125 24.326 21.2329 24.206C21.2591 24.0561 21.2854 23.9062 21.3087 23.7563C21.3262 23.6514 21.3379 23.5465 21.3496 23.4385C21.3583 23.3756 21.3642 23.3126 21.3729 23.2497C21.3875 23.1417 21.4079 23.0338 21.4254 22.9259L21.4458 22.7999C21.4517 22.767 21.4575 22.737 21.4633 22.704L21.4896 22.5331C21.5158 22.3712 21.5392 22.2063 21.5625 22.0444C21.5742 21.9605 21.5858 21.8765 21.5946 21.7896C21.6033 21.7086 21.6121 21.6247 21.6267 21.5438C21.65 21.3909 21.6792 21.2409 21.7054 21.091C21.7258 20.9711 21.7492 20.8542 21.7667 20.7343C21.7842 20.6383 21.7958 20.5424 21.8104 20.4465C21.8192 20.3835 21.8279 20.3235 21.8367 20.2636C21.8542 20.1586 21.8717 20.0507 21.8892 19.9458L21.9271 19.7239L21.9387 19.652C21.9562 19.55 21.9737 19.4481 21.9854 19.3432C21.9942 19.2652 22.0058 19.1873 22.0117 19.1123C22.0204 19.0284 22.0292 18.9444 22.0437 18.8605C22.0525 18.7975 22.0671 18.7376 22.0787 18.6746C22.0933 18.6026 22.1079 18.5307 22.1196 18.4617C22.1371 18.3688 22.1517 18.2729 22.1633 18.1799C22.1721 18.1289 22.1779 18.078 22.1867 18.027C22.2071 17.8981 22.2275 17.7692 22.2508 17.6403L22.2771 17.4874L22.2975 17.3644C22.3121 17.2715 22.3296 17.1816 22.3413 17.0886C22.3529 17.0197 22.3617 16.9477 22.3733 16.8787C22.385 16.7918 22.3996 16.7079 22.4142 16.6209C22.4317 16.516 22.4521 16.411 22.4725 16.3061C22.5775 15.7844 22.3704 15.4307 22.2392 15.2658C22.0146 14.99 21.6821 14.8371 21.3204 14.846C21.2679 14.846 21.2154 14.852 21.1571 14.861C20.9966 14.885 20.8362 14.933 20.6729 15.0019C20.3929 15.1219 20.1362 15.2328 19.8883 15.3437C19.6783 15.4397 19.4712 15.5356 19.2612 15.6315L18.9316 15.7844C18.6837 15.8984 18.4387 16.0123 18.1908 16.1232C17.9866 16.2162 17.7795 16.3091 17.5724 16.4021L17.2457 16.549L17.0707 16.6299C16.9628 16.6809 16.852 16.7318 16.7411 16.7768C16.5836 16.8458 16.4232 16.9117 16.2628 16.9777C16.1549 17.0227 16.047 17.0676 15.939 17.1126C15.8603 17.1456 15.7815 17.1786 15.6999 17.2145C15.5919 17.2595 15.484 17.3075 15.3761 17.3524C15.2682 17.3944 15.1603 17.4364 15.0524 17.4784C14.9736 17.5083 14.8919 17.5383 14.8132 17.5683C14.7198 17.6043 14.6265 17.6403 14.5332 17.6792C14.3932 17.7332 14.2561 17.7902 14.1161 17.8411C13.9877 17.8891 13.8594 17.9341 13.7311 17.979C13.629 18.015 13.5298 18.051 13.4277 18.087C13.3548 18.114 13.279 18.1409 13.2061 18.1709C13.1302 18.2009 13.0544 18.2279 12.9786 18.2549C12.9436 18.2669 12.9086 18.2758 12.8736 18.2848C12.8269 18.2968 12.7773 18.3088 12.7306 18.3238C12.6811 18.3388 12.6315 18.3538 12.5819 18.3718C12.5586 18.3808 12.5323 18.3868 12.509 18.3958L12.2202 18.4827C11.9752 18.5577 11.7302 18.6326 11.4823 18.7016C11.3714 18.7316 11.246 18.7615 11.1148 18.7885C11.0273 18.8095 10.9398 18.8275 10.8523 18.8485C10.7443 18.8755 10.6335 18.9024 10.5256 18.9324L10.4235 18.9594L10.2864 18.9804C10.1523 18.9984 10.0181 19.0194 9.88683 19.0374C9.78183 19.0524 9.67683 19.0703 9.57182 19.0883C9.43182 19.1123 9.29473 19.1333 9.15473 19.1543C9.0964 19.1633 9.02056 19.1663 8.96223 19.1663L8.55972 19.1783C8.25346 19.1873 7.94721 19.1963 7.64095 19.2053C7.4397 19.2112 7.23844 19.2142 7.03719 19.2172C6.90885 19.2172 6.78927 19.2083 6.6901 19.1843C6.38676 19.1153 6.10092 18.9894 5.80925 18.7945C5.67508 18.7046 5.52924 18.5996 5.45049 18.4947C5.37757 18.3958 5.31632 18.2998 5.26965 18.2069C5.07131 17.8141 4.86714 17.3974 4.66297 16.9657C4.5463 16.7198 4.43547 16.471 4.32171 16.2222C4.24296 16.0453 4.16129 15.8684 4.07963 15.6915C3.99796 15.5116 3.91337 15.3347 3.82879 15.1578C3.7092 14.903 3.58962 14.6512 3.47586 14.3933C3.29794 13.9976 3.12586 13.6018 2.95377 13.2061L2.77002 12.7804C2.52793 12.2257 2.28584 11.6741 2.04667 11.1194L2.02917 11.0835C2.02042 11.0625 2.00875 11.0355 2 11.0145C2.02042 10.9096 2.04667 10.8406 2.07583 10.7956C2.09917 10.7627 2.1225 10.7327 2.14875 10.7027M15.1894 10.7926L26.3109 5.33915"
          stroke="black" stroke-width="2" stroke-miterlimit="10"/>
</svg>
