<svg width="41" height="34" viewBox="0 0 41 34" fill="none" xmlns="http://www.w3.org/2000/svg">
    <path d="M5.12926 1.01122C5.26791 1.01122 5.4232 1.04489 5.62008 1.11784C5.65059 1.13748 5.71991 1.1964 5.7726 1.23849C5.82529 1.28338 5.87798 1.32546 5.93066 1.37035C5.98335 1.41244 6.03881 1.46014 6.09427 1.51906C6.21351 1.6397 6.32443 1.77999 6.42149 1.90344C6.43536 1.9343 6.45754 1.99603 6.4714 2.0325C6.56569 2.29343 6.6156 2.60767 6.66829 2.93874C6.72098 3.27262 6.77089 3.6065 6.81803 3.94319C6.85131 4.17606 6.88459 4.40613 6.92064 4.639C7.03156 5.37129 7.14525 6.10358 7.26172 6.83306C7.2839 6.97616 7.31441 7.09961 7.34214 7.20903C7.356 7.26234 7.36987 7.31565 7.38096 7.37176C7.44197 7.686 7.58616 7.96657 7.80246 8.18261C7.95221 8.33412 8.13523 8.45476 8.3432 8.53893C8.529 8.61469 8.71479 8.69325 8.90336 8.769C9.10579 8.85317 9.30822 8.93734 9.51065 9.02152C9.87946 9.17022 10.2483 9.31331 10.6171 9.45921L10.8084 9.53496C10.9277 9.58266 11.0469 9.62755 11.1662 9.67525C11.3076 9.73136 11.4518 9.78467 11.5932 9.84078L12.1977 10.0765L12.7912 10.3093C13.1627 10.4552 13.5316 10.6011 13.9059 10.7442C14.2414 10.8733 14.5798 10.9995 14.9181 11.1258L15.3451 11.2857C15.3839 11.2998 15.4533 11.3278 15.5448 11.3474C15.6391 11.3699 15.7333 11.3811 15.8304 11.3811C16.1659 11.3811 16.4821 11.238 16.7039 10.9911C16.9257 10.7414 17.0339 10.3991 16.9978 10.0568C16.984 9.91654 16.959 9.77345 16.9257 9.61913L16.8758 9.38906C16.7788 8.93734 16.6789 8.48282 16.5763 8.0311C16.4183 7.34651 16.2574 6.66192 16.0938 5.98013C16.0273 5.70236 15.9607 5.42741 15.8942 5.14964C15.7916 4.72598 15.689 4.30512 15.5919 3.88146C15.481 3.40449 15.3784 2.94155 15.3174 2.47861C15.3118 2.43652 15.3091 2.38602 15.3396 2.31868C15.6834 2.38882 16.0384 2.50386 16.3462 2.60767C16.4238 2.63292 16.5237 2.68062 16.629 2.72832C16.7205 2.7704 16.8148 2.81529 16.9091 2.85457C17.1476 2.95277 17.3833 3.16881 17.6578 3.41852C17.7327 3.48866 17.8103 3.556 17.8852 3.62614C17.9407 3.69067 17.9961 3.7524 18.0516 3.81693C18.218 4.00772 18.376 4.18448 18.5202 4.36685C18.6117 4.48188 18.7005 4.59972 18.7365 4.6867C18.7948 4.82979 18.8641 4.93921 18.9085 5.01216L18.9279 5.04583L19.0194 5.20014C19.0804 5.30115 19.1386 5.40496 19.1969 5.50597C19.2523 5.60417 19.3022 5.70236 19.3549 5.80056L19.4104 5.90718C19.5019 6.07833 19.5934 6.25228 19.6821 6.42343L19.8069 6.66192C19.8901 6.82184 19.9705 6.97896 20.0565 7.13608C20.1064 7.22586 20.1591 7.31565 20.209 7.40543C20.2451 7.46715 20.2839 7.52888 20.3172 7.59341C20.356 7.66636 20.3948 7.74211 20.4309 7.81787C20.4669 7.88801 20.5002 7.96096 20.539 8.0311C20.5972 8.14333 20.6582 8.25556 20.7193 8.36779L20.783 8.48843L20.8773 8.66519C20.9328 8.769 20.991 8.87281 21.0465 8.97662C21.1324 9.13936 21.2212 9.30209 21.3044 9.46762C21.3376 9.53215 21.3709 9.59949 21.4042 9.66402C21.4486 9.751 21.4929 9.84078 21.5373 9.92776C21.5872 10.0232 21.6399 10.1185 21.6898 10.2111L21.773 10.3655C21.8562 10.5226 21.9422 10.6797 22.0254 10.8368C22.0753 10.9294 22.1224 11.0248 22.1723 11.1174L22.2666 11.3026L22.3248 11.4148C22.3942 11.5495 22.4663 11.6869 22.5384 11.8216C22.5744 11.8889 22.6132 11.9563 22.6521 12.0236C22.6715 12.0545 22.6881 12.0882 22.7075 12.119C22.7436 12.1807 22.7768 12.2453 22.8101 12.3098L22.8628 12.4108C22.971 12.6184 23.0819 12.8232 23.1873 13.0309C23.2344 13.1235 23.2843 13.2189 23.3315 13.3114C23.4008 13.4461 23.4701 13.5836 23.5422 13.7183C23.6309 13.8866 23.7252 14.0521 23.8029 14.1896C23.8639 14.2991 23.9415 14.3973 24.0303 14.487C24.2549 14.7143 24.4989 14.8125 24.632 14.8658L24.6625 14.877C24.8927 14.9724 25.1256 15.065 25.3585 15.1576L25.4972 15.2109L26.1794 15.4774C26.4594 15.5869 26.7395 15.6963 27.0196 15.8085C27.1777 15.8702 27.8765 16.1508 28.0706 16.2266C28.2896 16.3135 28.5059 16.3949 28.725 16.4791L28.9635 16.5717L29.2796 16.6923C29.4294 16.7484 29.5791 16.8074 29.7288 16.8635L29.9119 16.9336C30.1642 17.0318 30.4166 17.1272 30.6689 17.2282C30.7909 17.2759 30.9157 17.3264 31.0377 17.3769C31.1791 17.4358 31.3206 17.4919 31.462 17.5481C31.6284 17.6126 31.7948 17.6771 31.9639 17.7388C32.0859 17.7837 32.2079 17.8314 32.3272 17.8763C32.5851 17.9773 32.843 18.0783 33.1009 18.1822C33.4198 18.3112 33.6776 18.4206 33.9106 18.5216C34.0021 18.5609 34.0936 18.6058 34.1851 18.6479C34.3349 18.718 34.4929 18.791 34.6621 18.8583C34.8229 18.9229 35.0004 19.0267 35.189 19.1361L35.3193 19.2118C35.3692 19.2399 35.4357 19.2876 35.5051 19.3381C35.5439 19.3662 35.5827 19.3914 35.6215 19.4195L35.6826 19.4616C35.7741 19.5233 35.8656 19.5878 35.9543 19.6523L36.0874 19.7477C36.2177 19.8431 36.3425 19.9329 36.4451 20.0199C36.5949 20.149 36.7474 20.2948 36.9249 20.4772L36.9748 20.5277C37.1412 20.6961 37.3159 20.8756 37.4739 21.058C37.5765 21.1758 37.6764 21.3133 37.7873 21.4592L37.8649 21.563C37.9869 21.7258 38.0868 21.8604 38.1727 21.9951C38.2892 22.1775 38.4001 22.3683 38.5055 22.5506C38.5443 22.618 38.5859 22.7021 38.6275 22.7891L38.6663 22.8705C38.7994 23.1398 38.9104 23.4541 39.0102 23.8553C39.1294 24.3351 39.171 24.7924 39.1377 25.2525C39.1267 25.3984 39.0962 25.5275 39.049 25.6369C39.049 25.6369 39.049 25.6369 39.0462 25.6369C38.8604 25.7071 38.6525 25.7407 38.414 25.7407C38.2948 25.7407 38.17 25.7323 38.0313 25.7155C37.5682 25.6594 37.1245 25.5808 36.7113 25.4798C36.1762 25.3479 35.4718 25.1712 34.7674 24.972C34.1712 24.8036 33.5251 24.61 32.7293 24.3631C32.3438 24.2425 31.9473 24.1106 31.5646 23.9815C31.3843 23.9226 31.2041 23.8609 31.0239 23.802C30.8769 23.7543 30.7327 23.7066 30.5857 23.6589C30.2779 23.5579 29.9701 23.4597 29.6651 23.3531C29.3517 23.2436 29.0384 23.1314 28.725 23.0164C28.5309 22.9462 28.3396 22.8761 28.1454 22.806C27.9874 22.7498 27.8293 22.6937 27.6685 22.6404C27.5104 22.5843 27.3524 22.531 27.1943 22.4749C26.9724 22.3963 26.7506 22.315 26.5288 22.2336L26.1516 22.0961L26.1156 22.0821C26.0213 22.0456 25.866 21.9811 25.6664 21.953C25.597 21.9446 25.5249 21.939 25.4528 21.939C25.2643 21.939 25.0729 21.9727 24.901 22.0372C24.4323 22.2083 23.9665 22.3851 23.4978 22.5591L23.2455 22.6544C22.7297 22.848 22.2111 23.0444 21.6954 23.2408C21.5456 23.297 21.3986 23.3531 21.2489 23.412C21.0298 23.4962 20.8108 23.5803 20.5917 23.6617C20.3726 23.7431 20.1508 23.8244 19.9289 23.903C19.7126 23.9815 19.4963 24.0601 19.2801 24.1387C19.0582 24.22 18.8391 24.3042 18.6173 24.3884C18.4038 24.4697 18.1902 24.5511 17.974 24.6297C17.7355 24.7194 17.4942 24.8064 17.2557 24.8934C17.0173 24.9804 16.7815 25.0674 16.5431 25.1543C16.3711 25.2189 16.1992 25.2834 16.0273 25.3507C15.8609 25.4153 15.6945 25.4798 15.5281 25.5415C15.3007 25.6257 15.0734 25.7071 14.846 25.7912C14.638 25.867 14.43 25.9427 14.2193 26.0185C14.0473 26.083 13.8754 26.1476 13.7063 26.2121C13.49 26.2934 13.2737 26.3748 13.0546 26.4562C12.7828 26.5544 12.5111 26.6498 12.2393 26.7452C12.084 26.7985 11.9315 26.8546 11.7762 26.9079C11.6487 26.9528 11.5211 26.9977 11.3935 27.0454C11.2105 27.1127 11.0247 27.1772 10.8417 27.2418C10.337 27.4185 9.86005 27.5841 9.38309 27.6739C9.10856 27.7272 8.79521 27.7552 8.39866 27.7636C8.37371 27.7636 8.34598 27.7636 8.32102 27.7636C8.10749 27.7636 7.93834 27.744 7.78582 27.7047C7.41978 27.6065 7.03433 27.4971 6.69325 27.3456L6.50745 27.2642C6.33553 27.1885 6.17192 27.1183 6.02495 27.0426C6.01385 27.037 5.99999 27.0285 5.9889 27.0201C6.02772 26.9416 6.11091 26.8349 6.32166 26.6947C6.35216 26.675 6.37989 26.6554 6.4104 26.6329L6.65165 26.4534C6.81526 26.3327 6.9761 26.2093 7.14248 26.0914C7.37541 25.9231 7.61112 25.7547 7.84683 25.5864L8.04094 25.4489L8.12691 25.3872C8.28497 25.275 8.44303 25.1627 8.60387 25.0505C8.7037 24.9804 8.80353 24.913 8.90613 24.8457C9.03369 24.7615 9.16125 24.6746 9.28603 24.5876C9.37477 24.5259 9.46074 24.4613 9.54393 24.3968C9.59384 24.3575 9.64653 24.3182 9.69922 24.2818C9.78795 24.2172 9.87946 24.1555 9.97097 24.0938L10.0791 24.0208C10.1069 24.004 10.1346 23.9844 10.1623 23.9675L10.3037 23.8693C10.4396 23.7739 10.5755 23.6785 10.7114 23.5831C10.7807 23.5326 10.85 23.4821 10.9194 23.4288C10.9859 23.3783 11.0525 23.3278 11.1218 23.2801C11.2493 23.1931 11.3769 23.1062 11.5072 23.022C11.6071 22.9547 11.7097 22.8873 11.8095 22.82C11.8899 22.7639 11.9703 22.7078 12.0508 22.6516C12.1007 22.6152 12.1534 22.5787 12.2033 22.5422C12.292 22.4805 12.3807 22.4188 12.4695 22.3598L12.658 22.2308L12.7163 22.1887C12.8022 22.1298 12.8882 22.0709 12.9742 22.0091C13.038 21.9614 13.099 21.9165 13.1627 21.8688C13.2293 21.8183 13.2986 21.765 13.3679 21.7145C13.4206 21.6781 13.4733 21.6444 13.5288 21.6107C13.5898 21.5714 13.6536 21.5322 13.7146 21.4929C13.795 21.4396 13.8726 21.3835 13.9503 21.3302C13.9919 21.2993 14.0335 21.2712 14.0778 21.2404C14.186 21.1646 14.2941 21.0917 14.4051 21.0159L14.5354 20.9261L14.638 20.856C14.7156 20.8027 14.7933 20.7494 14.8709 20.6961C14.9292 20.654 14.9874 20.6147 15.0456 20.5726C15.1177 20.5221 15.1898 20.4716 15.2619 20.4211C15.3507 20.3594 15.4422 20.3033 15.5337 20.2443C15.9885 19.9582 16.0966 19.5541 16.1216 19.3381C16.1632 18.9762 16.0356 18.617 15.7749 18.3533C15.7361 18.314 15.6945 18.2775 15.6501 18.2411C15.5198 18.1373 15.3701 18.0475 15.2037 17.9717C14.9181 17.8427 14.6546 17.7276 14.3967 17.621C14.1777 17.5284 13.9614 17.4414 13.7423 17.3517L13.3957 17.2114C13.1378 17.1048 12.8799 16.9981 12.622 16.8915C12.4085 16.8017 12.1949 16.712 11.9814 16.6222L11.6431 16.4791L11.4601 16.4033C11.3464 16.3556 11.2327 16.3079 11.119 16.2602C10.9582 16.1873 10.7946 16.1143 10.6337 16.0386C10.5256 15.9881 10.4147 15.9376 10.3065 15.8899C10.2261 15.8534 10.1457 15.8169 10.0653 15.7805C9.95434 15.7328 9.84341 15.6823 9.73527 15.6318C9.62712 15.5813 9.52174 15.5279 9.41359 15.4746C9.33595 15.4354 9.25553 15.3961 9.17789 15.3568C9.08638 15.3119 8.99209 15.267 8.89781 15.2221C8.75916 15.1548 8.62051 15.0903 8.48185 15.0201C8.35707 14.9584 8.23228 14.8911 8.10749 14.8265C8.01044 14.776 7.91338 14.7227 7.81633 14.675C7.74423 14.6385 7.67213 14.6021 7.59726 14.5656C7.52238 14.5291 7.44751 14.4926 7.37541 14.4534C7.34214 14.4365 7.31163 14.4141 7.27836 14.3944C7.23399 14.3664 7.19239 14.3411 7.14803 14.3131C7.10366 14.285 7.05652 14.2598 7.00937 14.2345C6.98719 14.2205 6.96223 14.2093 6.94005 14.1952L6.67106 14.0381C6.4409 13.9063 6.21351 13.7744 5.98612 13.6341C5.88352 13.5724 5.77537 13.4966 5.66168 13.4209C5.58681 13.3676 5.50916 13.3171 5.43152 13.2666C5.33446 13.202 5.2374 13.1403 5.13757 13.0786L5.04329 13.0196L4.9296 12.9299C4.82145 12.8429 4.7133 12.7559 4.60238 12.6689C4.51642 12.6016 4.43045 12.5343 4.34171 12.4669C4.22802 12.3771 4.11155 12.2902 3.99786 12.2004C3.95072 12.1611 3.89526 12.1078 3.85089 12.0629L3.55695 11.7683C3.33233 11.5438 3.10771 11.3194 2.88587 11.0949C2.7389 10.9462 2.59193 10.7975 2.44773 10.646C2.35622 10.5506 2.27858 10.4524 2.22312 10.3626C2.05673 10.0877 1.94581 9.78186 1.87926 9.42554C1.84876 9.26281 1.82103 9.07763 1.84044 8.94576C1.85985 8.81951 1.88758 8.70728 1.91808 8.60908C2.05951 8.18542 2.21757 7.73931 2.38672 7.28478C2.48378 7.02385 2.58361 6.76573 2.68344 6.5076C2.75554 6.32243 2.82764 6.13725 2.89696 5.95207C2.96906 5.76409 3.03839 5.57611 3.10771 5.38813C3.20754 5.12158 3.3046 4.85224 3.40997 4.5885C3.57081 4.17887 3.73442 3.76923 3.89803 3.36241L4.07273 2.92471C4.30289 2.35516 4.53028 1.7856 4.76044 1.21604L4.77708 1.17676C4.7854 1.15431 4.79649 1.12906 4.80758 1.10381C4.89909 1.0477 4.96565 1.01683 5.01833 1.00842C5.05716 1.00281 5.09875 1 5.13757 1M14.3413 10.9041L26.1794 15.4774"
          stroke="black" stroke-width="2" stroke-miterlimit="10" stroke-linejoin="round"/>
    <path d="M1.97266 33H39.8333" stroke="#F0AB00" stroke-width="2" stroke-miterlimit="10" stroke-linecap="round"
          stroke-linejoin="round"/>
</svg>
